<?xml version="1.0" encoding="UTF-8" standalone="no"?>
<svg xmlns="http://www.w3.org/2000/svg" xml:space="preserve" viewBox="0 0 47.5 47.5">
  <defs>
    <clipPath id="a">
      <path d="M0 38h38V0H0v38z"/>
    </clipPath>
  </defs>
  <g clip-path="url(#a)" transform="matrix(1.25 0 0 -1.25 0 47.5)">
    <path fill="#9aaab4" d="M20 15c-6 0-5.127 6.449-5 7l10-2c-.183-2.391-2.562-5-5-5m6 18H15c-1.104 0-2-.896-2-2H7c0 1.104-.896 2-2 2H4c-1.104 0-2-.896-2-2H1v-5c0-1.104.896-2 2-2h10v-4c0-3.865 3.134-7 7-7 3.581 0 6.585 2.53 7 6h1c1.104 0 2 .896 2 2v8c-2.209 0-4 1.791-4 4"/>
    <path fill="#bf6952" d="m27 19 3 5s5 0 6-9l1-6s0-4-4-4h-2c-4 0-4 4-4 4v10z"/>
    <path fill="#9aaab4" d="M28 23c-1.104 0-2 .896-2 2 0 2.814 1.864 7 7 7 1.104 0 2-.896 2-2s-.896-2-2-2c-2.855 0-3-2.499-3-3 0-1.104-.896-2-2-2m-8-1c0-1 0-3-1-4s2-1 3 1 1 2 1 3-3 0-3 0"/>
    <path fill="#67757f" d="M26 27c0-2.209-1.791-4-4-4h-5.995c-2.209 0-2 1.791-2 4H14c0 2.209-.204 4 2.005 4H22c2.209 0 4-1.791 4-4"/>
    <path fill="#ccd6dd" d="M21 28h-5c-.552 0-1 .448-1 1s.448 1 1 1h5c.553 0 1-.448 1-1s-.447-1-1-1m0-4h-5c-.552 0-1 .448-1 1s.448 1 1 1h5c.553 0 1-.448 1-1s-.447-1-1-1"/>
  </g>
</svg>