<?xml version="1.0" encoding="UTF-8" standalone="no"?>
<!-- Created with Inkscape (http://www.inkscape.org/) -->

<svg
   width="9.5250807mm"
   height="6.8938665mm"
   viewBox="0 0 9.5250807 6.8938665"
   version="1.1"
   id="svg1"
   xml:space="preserve"
   xmlns="http://www.w3.org/2000/svg"
   xmlns:svg="http://www.w3.org/2000/svg"
   xmlns:rdf="http://www.w3.org/1999/02/22-rdf-syntax-ns#"
   xmlns:cc="http://creativecommons.org/ns#"
   xmlns:dc="http://purl.org/dc/elements/1.1/"><defs
     id="defs1" /><metadata
     id="metadata1"><rdf:RDF><cc:Work
         rdf:about=""><dc:format>image/svg+xml</dc:format><dc:type
           rdf:resource="http://purl.org/dc/dcmitype/StillImage" /></cc:Work></rdf:RDF></metadata><g
     id="g40930"
     transform="translate(-90.225159,-31.252355)"><path
       style="fill:#eeeded"
       d="m 91.256733,38.133063 c 0.01853,-0.0048 0.04425,-0.0045 0.05715,7.06e-4 0.0129,0.0052 -0.0023,0.0092 -0.0337,0.0088 -0.03143,-3.89e-4 -0.04198,-0.0047 -0.02345,-0.0095 z m -0.180147,-0.03791 c 0.01375,-0.0055 0.03018,-0.0048 0.03651,0.0015 0.0063,0.0063 -0.0049,0.01083 -0.025,0.01 -0.02219,-9.14e-4 -0.02671,-0.0054 -0.01151,-0.01151 z m -0.235674,-0.09281 c -0.03487,-0.02793 -0.03426,-0.02833 0.01065,-0.0069 0.05831,0.02777 0.06912,0.03657 0.04492,0.03657 -0.01022,0 -0.03522,-0.01333 -0.05556,-0.02963 z M 90.573809,37.788639 C 90.466358,37.667508 90.32792,37.47672 90.35292,37.484222 c 0.0088,0.0027 0.07565,-0.06804 0.148467,-0.157103 0.364452,-0.445736 1.932683,-2.369969 2.060419,-2.52815 l 0.06479,-0.08023 -0.149329,-0.18856 C 92.319936,34.331521 91.62147,33.463804 91.255442,33.01229 91.13653,32.865605 90.88922,32.559138 90.705865,32.331252 90.52251,32.103367 90.364616,31.916915 90.35499,31.916915 c -0.02569,0 0.109189,-0.186399 0.228758,-0.31614 0.05702,-0.06187 0.09328,-0.09855 0.08059,-0.08151 -0.01953,0.02622 0.0039,0.06422 0.152876,0.247649 0.09677,0.119172 0.313676,0.388126 0.482007,0.597676 0.168331,0.20955 0.537107,0.668178 0.819502,1.019175 0.282396,0.350996 0.63971,0.795523 0.794032,0.987838 l 0.280584,0.349662 -0.148862,0.183738 c -0.154786,0.191048 -0.918475,1.126547 -1.230811,1.507711 -1.084298,1.323242 -1.171772,1.434235 -1.150513,1.45985 0.01189,0.01433 0.01843,0.02585 0.01452,0.02561 -0.0039,-2.43e-4 -0.05064,-0.04953 -0.103869,-0.109537 z m 8.840724,-0.0043 c 0.01896,-0.02096 0.03877,-0.0381 0.044,-0.0381 0.0052,0 -0.006,0.01714 -0.02496,0.0381 -0.01896,0.02096 -0.03877,0.0381 -0.044,0.0381 -0.0052,0 0.006,-0.01714 0.02496,-0.0381 z m 0.203865,-0.294857 c 0.0228,-0.04692 0.04471,-0.08204 0.04871,-0.07805 0.0086,0.0086 -0.06836,0.163353 -0.08126,0.163353 -0.0049,0 0.0098,-0.03839 0.03256,-0.08531 z m -0.205675,-5.882105 -0.03629,-0.04286 0.04286,0.03629 c 0.04028,0.0341 0.05154,0.04943 0.03629,0.04943 -0.0036,0 -0.0229,-0.01929 -0.04286,-0.04286 z m -8.571811,-0.213261 c 0.02034,-0.01629 0.04534,-0.02963 0.05556,-0.02963 0.0242,0 0.0134,0.0088 -0.04492,0.03657 -0.04491,0.02139 -0.04551,0.02099 -0.01065,-0.0069 z m 0.254828,-0.109978 c 0.01016,-0.01016 0.03438,-0.0151 0.05383,-0.01098 0.02619,0.0056 0.0214,0.01034 -0.01847,0.01847 -0.03476,0.0071 -0.04729,0.0044 -0.03536,-0.0075 z m 0.160993,-0.0281 c 0.01853,-0.0048 0.04425,-0.0045 0.05715,7.06e-4 0.0129,0.0052 -0.0023,0.0092 -0.0337,0.0088 -0.03143,-3.88e-4 -0.04198,-0.0047 -0.02345,-0.0095 z"
       id="path40941" /><path
       style="fill:#f3a9b7"
       d="m 91.71357,38.132104 c 0.0812,-0.0036 0.214075,-0.0036 0.295275,0 0.0812,0.0036 0.01476,0.0065 -0.147637,0.0065 -0.162401,0 -0.228838,-0.0029 -0.147638,-0.0065 z m 6.905847,6.87e-4 c 0.0237,-0.0046 0.05799,-0.0044 0.0762,3.85e-4 0.01821,0.0048 -0.0012,0.0085 -0.04308,0.0083 -0.04191,-2.11e-4 -0.05681,-0.0041 -0.03312,-0.0087 z m -7.748809,-0.130035 c -0.0681,-0.03641 -0.14815,-0.08568 -0.17788,-0.109475 l -0.05406,-0.04327 0.497739,-0.609111 c 0.273757,-0.335011 0.578522,-0.707694 0.677255,-0.828186 0.312336,-0.381164 1.076025,-1.316663 1.230811,-1.507711 L 93.19334,34.721265 92.912756,34.371603 C 92.758434,34.179288 92.40112,33.734761 92.118724,33.383765 91.836329,33.032768 91.467553,32.57414 91.299222,32.36459 91.130891,32.15504 90.913335,31.885281 90.815765,31.765127 l -0.177402,-0.218463 0.05421,-0.04345 c 0.08369,-0.06707 0.310603,-0.18123 0.338757,-0.170426 0.01385,0.0053 0.174853,0.196778 0.357794,0.425479 0.323128,0.403952 0.841655,1.049404 1.877333,2.336869 l 0.503294,0.625651 -0.06249,0.0792 c -0.03437,0.04356 -0.157793,0.194928 -0.274277,0.336375 -0.278719,0.338449 -0.663804,0.809495 -1.074576,1.314449 -0.183251,0.225267 -0.445571,0.546735 -0.582933,0.714375 -0.137362,0.16764 -0.359832,0.439817 -0.494377,0.604838 -0.134545,0.165021 -0.254086,0.299789 -0.265647,0.299485 -0.01156,-3.04e-4 -0.07674,-0.03034 -0.144844,-0.06676 z m 8.524875,-0.218442 c 0.0516,-0.05239 0.0981,-0.09525 0.103342,-0.09525 0.0052,0 -0.03269,0.04286 -0.08429,0.09525 -0.0516,0.05239 -0.0981,0.09525 -0.103343,0.09525 -0.0052,0 0.03269,-0.04286 0.08429,-0.09525 z m -9.046788,-0.301625 c -0.0054,-0.0087 0.0023,-0.01588 0.01709,-0.01588 0.01479,0 0.02248,0.0071 0.01709,0.01588 -0.0054,0.0087 -0.01309,0.01588 -0.01709,0.01588 -0.004,0 -0.01169,-0.0071 -0.01709,-0.01588 z m 0.06471,-0.06752 c 0,-0.004 0.015,-0.01896 0.03334,-0.03334 0.03021,-0.02369 0.03089,-0.02302 0.0072,0.0072 -0.02489,0.03173 -0.04053,0.04182 -0.04053,0.02614 z m 0.104775,-0.126158 c 0.01896,-0.02096 0.03877,-0.0381 0.04401,-0.0381 0.0052,0 -0.006,0.01714 -0.02496,0.0381 -0.01896,0.02096 -0.03877,0.0381 -0.044,0.0381 -0.0052,0 0.006,-0.01714 0.02495,-0.0381 z m 0.06668,-0.08339 c 0,-0.004 0.015,-0.01896 0.03334,-0.03334 0.03021,-0.0237 0.03089,-0.02302 0.0072,0.0072 -0.02489,0.03173 -0.04053,0.04182 -0.04053,0.02614 z m 0.0762,-0.09525 c 0,-0.004 0.015,-0.01896 0.03334,-0.03334 0.03021,-0.0237 0.03089,-0.02302 0.0072,0.0072 -0.02489,0.03173 -0.04053,0.04182 -0.04053,0.02614 z m 0.0762,-0.09525 c 0,-0.004 0.015,-0.01896 0.03334,-0.03334 0.03021,-0.0237 0.03089,-0.02302 0.0072,0.0072 -0.02489,0.03173 -0.04053,0.04182 -0.04053,0.02614 z m 0.09525,-0.1143 c 0,-0.004 0.015,-0.01896 0.03334,-0.03334 0.03022,-0.0237 0.03089,-0.02302 0.0072,0.0072 -0.02489,0.03173 -0.04053,0.04182 -0.04053,0.02614 z m 0.24765,-0.3048 c 0,-0.004 0.015,-0.01896 0.03334,-0.03334 0.03021,-0.0237 0.03089,-0.02302 0.0072,0.0072 -0.02489,0.03173 -0.04053,0.04182 -0.04053,0.02614 z m 0.09525,-0.1143 c 0,-0.004 0.015,-0.01896 0.03334,-0.03334 0.03022,-0.0237 0.03089,-0.02302 0.0072,0.0072 -0.02489,0.03173 -0.04053,0.04182 -0.04053,0.02614 z m 0.09525,-0.1143 c 0,-0.004 0.015,-0.01896 0.03334,-0.03334 0.03021,-0.0237 0.03089,-0.02302 0.0072,0.0072 -0.02489,0.03173 -0.04053,0.04182 -0.04053,0.02614 z m 0.0762,-0.09525 c 0,-0.004 0.015,-0.01896 0.03334,-0.03334 0.03021,-0.0237 0.03089,-0.02302 0.0072,0.0072 -0.02489,0.03173 -0.04053,0.04182 -0.04053,0.02614 z m 0.0762,-0.09525 c 0,-0.004 0.015,-0.01896 0.03334,-0.03334 0.03021,-0.0237 0.03089,-0.02302 0.0072,0.0072 -0.02489,0.03173 -0.04053,0.04182 -0.04053,0.02614 z m 0.0762,-0.09525 c 0,-0.004 0.015,-0.01896 0.03334,-0.03334 0.03021,-0.0237 0.03089,-0.02302 0.0072,0.0072 -0.02489,0.03173 -0.04053,0.04182 -0.04053,0.02614 z m 0.104775,-0.126158 c 0.01896,-0.02096 0.03877,-0.0381 0.044,-0.0381 0.0052,0 -0.006,0.01714 -0.02496,0.0381 -0.01896,0.02096 -0.03877,0.0381 -0.044,0.0381 -0.0052,0 0.006,-0.01714 0.02496,-0.0381 z m 0.06668,-0.08339 c 0,-0.004 0.015,-0.01896 0.03334,-0.03334 0.03022,-0.0237 0.03089,-0.02302 0.0072,0.0072 -0.02489,0.03173 -0.04053,0.04182 -0.04053,0.02614 z m 0.2667,-0.32385 c 0,-0.004 0.015,-0.01896 0.03334,-0.03334 0.03022,-0.0237 0.03089,-0.02302 0.0072,0.0072 -0.02489,0.03173 -0.04053,0.04182 -0.04053,0.02614 z m 0.0762,-0.09525 c 0,-0.004 0.015,-0.01896 0.03334,-0.03334 0.03022,-0.0237 0.03089,-0.02302 0.0072,0.0072 -0.02489,0.03173 -0.04053,0.04182 -0.04053,0.02614 z m 0.17145,-0.20955 c 0,-0.004 0.015,-0.01896 0.03334,-0.03334 0.03021,-0.0237 0.03089,-0.02302 0.0072,0.0072 -0.02489,0.03173 -0.04053,0.04182 -0.04053,0.02614 z m 0.0762,-0.09525 c 0,-0.004 0.015,-0.01896 0.03334,-0.03334 0.03021,-0.0237 0.03089,-0.02302 0.0072,0.0072 -0.02489,0.03173 -0.04053,0.04182 -0.04053,0.02614 z m 0.09525,-0.1143 c 0,-0.004 0.015,-0.01896 0.03334,-0.03334 0.03022,-0.0237 0.03089,-0.02302 0.0072,0.0072 -0.02489,0.03173 -0.04053,0.04182 -0.04053,0.02614 z m 0.0762,-0.09525 c 0,-0.004 0.015,-0.01896 0.03334,-0.03334 0.03022,-0.0237 0.03089,-0.02302 0.0072,0.0072 -0.02489,0.03173 -0.04053,0.04182 -0.04053,0.02614 z m 0.0762,-0.09525 c 0,-0.004 0.015,-0.01896 0.03334,-0.03334 0.03022,-0.0237 0.03089,-0.02302 0.0072,0.0072 -0.02489,0.03173 -0.04053,0.04182 -0.04053,0.02614 z m -0.201835,-0.51192 -0.03629,-0.04286 0.04286,0.03629 c 0.04028,0.0341 0.05154,0.04943 0.03629,0.04943 -0.0036,0 -0.0229,-0.01929 -0.04286,-0.04286 z m -0.08635,-0.104775 c -0.0237,-0.03021 -0.02302,-0.03089 0.0072,-0.0072 0.01834,0.01438 0.03334,0.02938 0.03334,0.03334 0,0.01568 -0.01564,0.0056 -0.04053,-0.02615 z m -0.0762,-0.09525 c -0.0237,-0.03021 -0.02302,-0.03089 0.0072,-0.0072 0.01834,0.01438 0.03334,0.02938 0.03334,0.03334 0,0.01568 -0.01564,0.0056 -0.04053,-0.02615 z m -0.40005,-0.4953 c -0.0237,-0.03021 -0.02302,-0.03089 0.0072,-0.0072 0.01834,0.01438 0.03334,0.02938 0.03334,0.03334 0,0.01568 -0.01564,0.0056 -0.04053,-0.02614 z m -0.0762,-0.09525 c -0.0237,-0.03021 -0.02302,-0.03089 0.0072,-0.0072 0.01834,0.01438 0.03334,0.02938 0.03334,0.03334 0,0.01568 -0.01564,0.0056 -0.04053,-0.02614 z m -0.0762,-0.09525 c -0.0237,-0.03021 -0.02302,-0.03089 0.0072,-0.0072 0.01834,0.01438 0.03334,0.02938 0.03334,0.03334 0,0.01568 -0.01564,0.0056 -0.04053,-0.02614 z m -0.0762,-0.09525 c -0.0237,-0.03021 -0.02302,-0.03089 0.0072,-0.0072 0.01834,0.01438 0.03334,0.02938 0.03334,0.03334 0,0.01568 -0.01564,0.0056 -0.04053,-0.02614 z m -0.0851,-0.104775 -0.03629,-0.04286 0.04286,0.03629 c 0.04028,0.0341 0.05154,0.04943 0.03629,0.04943 -0.0036,0 -0.0229,-0.01929 -0.04286,-0.04286 z m -0.08635,-0.104775 c -0.0237,-0.03021 -0.02302,-0.03089 0.0072,-0.0072 0.01834,0.01438 0.03334,0.02938 0.03334,0.03334 0,0.01568 -0.01564,0.0056 -0.04053,-0.02614 z m -0.05715,-0.0762 c -0.0237,-0.03021 -0.02302,-0.03089 0.0072,-0.0072 0.01834,0.01438 0.03334,0.02938 0.03334,0.03334 0,0.01568 -0.01564,0.0056 -0.04053,-0.02614 z m -0.09525,-0.1143 c -0.0237,-0.03021 -0.02302,-0.03089 0.0072,-0.0072 0.01834,0.01438 0.03334,0.02938 0.03334,0.03334 0,0.01568 -0.01564,0.0056 -0.04053,-0.02614 z m -0.0762,-0.09525 c -0.0237,-0.03021 -0.02302,-0.03089 0.0072,-0.0072 0.01834,0.01438 0.03334,0.02938 0.03334,0.03334 0,0.01568 -0.01564,0.0056 -0.04053,-0.02614 z m -0.0762,-0.09525 c -0.0237,-0.03021 -0.02302,-0.03089 0.0072,-0.0072 0.01834,0.01438 0.03334,0.02938 0.03334,0.03334 0,0.01568 -0.01564,0.0056 -0.04053,-0.02614 z m -0.09525,-0.1143 c -0.0237,-0.03021 -0.02302,-0.03089 0.0072,-0.0072 0.01834,0.01438 0.03334,0.02938 0.03334,0.03334 0,0.01568 -0.01564,0.0056 -0.04053,-0.02614 z m -0.2286,-0.28575 c -0.0237,-0.03021 -0.02302,-0.03089 0.0072,-0.0072 0.03173,0.02489 0.04182,0.04053 0.02615,0.04053 -0.004,0 -0.01896,-0.015 -0.03334,-0.03334 z m 9.014584,-0.07303 c 9.14e-4,-0.02219 0.0054,-0.02671 0.01151,-0.01151 0.0055,0.01375 0.0048,0.03018 -0.0015,0.03651 -0.0063,0.0063 -0.01083,-0.0049 -0.01001,-0.025 z m -9.090784,-0.02222 c -0.0237,-0.03021 -0.02302,-0.03089 0.0072,-0.0072 0.03173,0.02489 0.04182,0.04053 0.02614,0.04053 -0.004,0 -0.01896,-0.015 -0.03334,-0.03334 z m -0.0762,-0.09525 c -0.0237,-0.03021 -0.02302,-0.03089 0.0072,-0.0072 0.03173,0.02489 0.04182,0.04053 0.02614,0.04053 -0.004,0 -0.01896,-0.015 -0.03334,-0.03334 z m -0.09525,-0.1143 c -0.0237,-0.03021 -0.02302,-0.03089 0.0072,-0.0072 0.01834,0.01438 0.03334,0.02938 0.03334,0.03334 0,0.01568 -0.01564,0.0056 -0.04053,-0.02614 z m 9.04875,-0.3048 c -0.0237,-0.03021 -0.02302,-0.03089 0.0072,-0.0072 0.01834,0.01438 0.03334,0.02938 0.03334,0.03334 0,0.01568 -0.01564,0.0056 -0.04053,-0.02614 z m -0.131571,-0.1524 -0.104124,-0.109537 0.109537,0.104124 c 0.06025,0.05727 0.109538,0.10656 0.109538,0.109537 0,0.01414 -0.01822,-0.0024 -0.114951,-0.104124 z m -0.574421,-0.322576 c 0.01375,-0.0055 0.03018,-0.0048 0.03651,0.0015 0.0063,0.0063 -0.0049,0.01083 -0.025,0.01001 -0.02219,-9.14e-4 -0.02671,-0.0054 -0.01151,-0.01151 z m -7.097316,-0.0202 c 0.0812,-0.0036 0.214075,-0.0036 0.295275,0 0.0812,0.0036 0.01476,0.0065 -0.147637,0.0065 -0.162401,0 -0.228838,-0.0029 -0.147638,-0.0065 z m 6.962775,0.0015 c 0.0131,-0.0053 0.03453,-0.0053 0.04762,0 0.0131,0.0053 0.0024,0.0096 -0.02381,0.0096 -0.02619,0 -0.03691,-0.0043 -0.02381,-0.0096 z"
       id="path40940" /><path
       style="fill:#5acdf7"
       d="m 91.289708,38.134083 c -0.119827,-0.01759 -0.248225,-0.05271 -0.243418,-0.06658 0.0052,-0.01507 0.208144,-0.26622 0.728368,-0.90149 0.146231,-0.17857 0.412363,-0.504695 0.591404,-0.724723 0.409311,-0.503011 0.79395,-0.973452 1.066923,-1.304924 0.116484,-0.141447 0.239998,-0.292926 0.274475,-0.336621 l 0.06269,-0.07945 -0.388726,-0.482529 C 92.976099,33.734632 92.41269,33.033725 91.5505,31.960011 c -0.279642,-0.348246 -0.508439,-0.636713 -0.508439,-0.641037 0,-0.02152 0.212909,-0.05447 0.366585,-0.05673 l 0.173534,-0.0026 0.544328,0.677723 c 0.29938,0.372748 0.681915,0.848522 0.850078,1.057275 0.168162,0.208754 0.501954,0.623868 0.74176,0.922477 0.239806,0.298608 0.481552,0.598171 0.537213,0.665694 0.126978,0.154038 0.148648,0.09642 -0.192161,0.51098 -0.540868,0.657919 -1.374702,1.677081 -1.849762,2.260891 -0.146685,0.180264 -0.352078,0.432104 -0.456429,0.559644 l -0.189728,0.23189 -0.115072,-0.0026 c -0.06329,-0.0014 -0.136502,-0.0057 -0.162696,-0.0096 z"
       id="path40939" /><path
       style="fill:#f8d01c"
       d="m 90.31744,37.396603 c -0.09711,-0.219526 -0.09577,-0.178501 -0.09019,-2.76112 l 0.0052,-2.404243 0.04224,-0.124096 c 0.0766,-0.225035 0.05265,-0.236795 0.399644,0.196248 0.169694,0.211776 0.48514,0.603646 0.700991,0.870823 1.001773,1.239976 1.228849,1.525009 1.228849,1.542489 0,0.01033 -0.203597,0.268458 -0.452438,0.573606 -0.24884,0.305147 -0.572452,0.7024 -0.719137,0.882783 -0.146685,0.180383 -0.318684,0.391673 -0.382221,0.469533 -0.4946,0.606101 -0.662189,0.810691 -0.6766,0.825985 -0.0098,0.01044 -0.03289,-0.01904 -0.05632,-0.07201 z m 1.206567,-1.879442 c 0.619261,-0.19127 0.806664,-0.988541 0.339761,-1.44545 -0.453659,-0.443949 -1.247813,-0.258381 -1.43089,0.334353 -0.214289,0.693789 0.403952,1.323344 1.091129,1.111097 z m -0.389164,-0.132934 c -0.567679,-0.09943 -0.782183,-0.81503 -0.361647,-1.206472 0.493473,-0.459333 1.266573,-0.05326 1.1798,0.619699 -0.049,0.380047 -0.431643,0.654473 -0.818153,0.586773 z m 4.192339,-0.90985 c -0.441263,-0.545371 -0.722774,-0.899417 -0.722774,-0.909004 0,-0.0056 1.157287,-0.01016 2.57175,-0.01016 h 2.57175 v 0.581025 0.581025 h -2.112103 -2.112102 z"
       id="path40938" /><path
       style="fill:#c2674d"
       d="m 91.625374,38.103402 c 0.02224,-0.03765 0.136992,-0.180686 0.294202,-0.366713 0.07969,-0.0943 0.259893,-0.313547 0.40045,-0.487221 0.140556,-0.173675 0.542194,-0.666594 0.892528,-1.095375 0.590386,-0.722587 1.107469,-1.358168 1.148616,-1.411843 0.01185,-0.01546 -0.06622,-0.127171 -0.246312,-0.352425 -0.347544,-0.434693 -1.260837,-1.570374 -1.786314,-2.221282 -0.230841,-0.285943 -0.486815,-0.605269 -0.56883,-0.709613 l -0.14912,-0.189715 h 0.267109 0.267109 l 0.16776,0.203489 c 0.09227,0.111919 0.253486,0.312156 0.358261,0.444972 0.104775,0.132815 0.29722,0.37343 0.427657,0.534698 0.743012,0.918645 1.098681,1.361076 1.274198,1.585025 0.108298,0.138183 0.278014,0.347949 0.377148,0.466149 l 0.180244,0.214909 -0.20868,0.251816 c -0.114774,0.138499 -0.310208,0.377121 -0.434298,0.530271 -0.423582,0.522776 -0.966491,1.188046 -1.187463,1.455095 -0.121376,0.146685 -0.292659,0.356712 -0.380628,0.466725 -0.08797,0.110014 -0.254435,0.313611 -0.369922,0.452438 l -0.209978,0.252412 H 91.87521 c -0.205922,0 -0.260811,-0.0052 -0.249836,-0.02381 z m -0.453538,-2.713351 c 0.01375,-0.0055 0.03018,-0.0048 0.03651,0.0015 0.0063,0.0063 -0.0049,0.01083 -0.025,0.01001 -0.02219,-9.15e-4 -0.02671,-0.0054 -0.01151,-0.01151 z m 0.689372,-0.09176 c 0.03554,-0.03667 0.06891,-0.06668 0.07415,-0.06668 0.0052,0 -0.01956,0.03 -0.0551,0.06668 -0.03554,0.03667 -0.06891,0.06667 -0.07415,0.06667 -0.0052,0 0.01956,-0.03 0.0551,-0.06667 z m -1.230535,0.0048 -0.03629,-0.04286 0.04286,0.03629 c 0.04028,0.0341 0.05153,0.04943 0.03629,0.04943 -0.0036,0 -0.0229,-0.01929 -0.04286,-0.04286 z m 0.105559,-0.123825 -0.06565,-0.07144 0.07144,0.06565 c 0.06649,0.0611 0.0802,0.07723 0.06565,0.07723 -0.0032,0 -0.03533,-0.03215 -0.07144,-0.07144 z m -0.191904,0.01905 c -0.0237,-0.03021 -0.02302,-0.03089 0.0072,-0.0072 0.01834,0.01438 0.03334,0.02938 0.03334,0.03334 0,0.01568 -0.01564,0.0056 -0.04053,-0.02614 z m 1.25973,-0.06911 c 0,-0.004 0.015,-0.01896 0.03334,-0.03334 0.03021,-0.0237 0.03089,-0.02302 0.0072,0.0072 -0.02489,0.03173 -0.04053,0.04182 -0.04053,0.02614 z m -1.254292,-0.316657 c 0,-0.02619 0.0043,-0.03691 0.0096,-0.02381 0.0053,0.0131 0.0053,0.03453 0,0.04762 -0.0053,0.0131 -0.0096,0.0024 -0.0096,-0.02381 z m 1.562806,-0.02857 c 3.88e-4,-0.03143 0.0047,-0.04199 0.0095,-0.02345 0.0048,0.01853 0.0045,0.04425 -7.05e-4,0.05715 -0.0052,0.0129 -0.0092,-0.0023 -0.0088,-0.0337 z m -0.153106,-0.04763 c 0,-0.02619 0.0043,-0.03691 0.0096,-0.02381 0.0053,0.0131 0.0053,0.03453 0,0.04762 -0.0053,0.0131 -0.0096,0.0024 -0.0096,-0.02381 z m 0,-0.09525 c 0,-0.02619 0.0043,-0.03691 0.0096,-0.02381 0.0053,0.0131 0.0053,0.03453 0,0.04762 -0.0053,0.0131 -0.0096,0.0024 -0.0096,-0.02381 z m 0.153106,-0.04762 c 3.88e-4,-0.03143 0.0047,-0.04199 0.0095,-0.02345 0.0048,0.01853 0.0045,0.04425 -7.05e-4,0.05715 -0.0052,0.0129 -0.0092,-0.0023 -0.0088,-0.0337 z m -1.562806,-0.02858 c 0,-0.02619 0.0043,-0.03691 0.0096,-0.02381 0.0053,0.0131 0.0053,0.03453 0,0.04762 -0.0053,0.0131 -0.0096,0.0024 -0.0096,-0.02381 z m 0.187492,-0.371475 c 0.02461,-0.02619 0.04903,-0.04763 0.05427,-0.04763 0.0052,0 -0.01061,0.02143 -0.03522,0.04763 -0.02461,0.02619 -0.04903,0.04762 -0.05427,0.04762 -0.0052,0 0.01061,-0.02143 0.03522,-0.04762 z m 0.95007,-0.06191 c -0.0237,-0.03021 -0.02302,-0.03089 0.0072,-0.0072 0.01834,0.01438 0.03334,0.02938 0.03334,0.03334 0,0.01568 -0.01564,0.0056 -0.04053,-0.02615 z m 0.182207,-0.04762 -0.05595,-0.06191 0.06191,0.05595 c 0.03405,0.03077 0.06191,0.05863 0.06191,0.06191 0,0.01472 -0.01572,0.0018 -0.06787,-0.05595 z m -1.265627,0.01662 c 0,-0.004 0.015,-0.01896 0.03334,-0.03334 0.03021,-0.0237 0.03089,-0.02302 0.0072,0.0072 -0.02489,0.03173 -0.04053,0.04182 -0.04053,0.02615 z m 0.548878,-0.120121 c 0.01375,-0.0055 0.03018,-0.0048 0.03651,0.0015 0.0063,0.0063 -0.0049,0.01083 -0.025,0.01001 -0.02219,-9.14e-4 -0.02671,-0.0054 -0.01151,-0.01151 z m 0.17145,0 c 0.01375,-0.0055 0.03018,-0.0048 0.03651,0.0015 0.0063,0.0063 -0.0049,0.01083 -0.025,0.01001 -0.02219,-9.14e-4 -0.02671,-0.0054 -0.01151,-0.01151 z m -0.2286,-0.1524 c 0.01375,-0.0055 0.03018,-0.0048 0.03651,0.0015 0.0063,0.0063 -0.0049,0.01083 -0.025,0.01001 -0.02219,-9.14e-4 -0.02671,-0.0054 -0.01151,-0.01151 z m 0.28575,0 c 0.01375,-0.0055 0.03018,-0.0048 0.03651,0.0015 0.0063,0.0063 -0.0049,0.01083 -0.025,0.01001 -0.02219,-9.14e-4 -0.02671,-0.0054 -0.01151,-0.01151 z m 7.37235,-2.5527 c 0.01375,-0.0055 0.03018,-0.0048 0.03651,0.0015 0.0063,0.0063 -0.0049,0.01083 -0.025,0.01001 -0.02219,-9.14e-4 -0.02671,-0.0054 -0.01151,-0.01151 z m -4.546114,-0.02032 c 0.813801,-0.0027 2.151111,-0.0027 2.9718,0 0.820688,0.0027 0.154851,0.005 -1.479639,0.005 -1.63449,0 -2.305963,-0.0022 -1.492161,-0.005 z"
       id="path40937" /><path
       style="fill:#fd7200"
       d="m 94.525928,33.474252 c -0.03712,-0.04453 -0.245059,-0.301704 -0.46208,-0.5715 l -0.394582,-0.490537 h 3.039321 3.039321 v 0.5715 0.5715 h -2.577241 -2.577241 z"
       id="path40936" /><path
       style="fill:#af6352"
       d="m 92.146958,38.129664 c 0,-0.0091 0.03526,-0.05413 0.07835,-0.100012 l 0.07835,-0.08341 -0.07005,0.09043 -0.07005,0.09043 3.215917,0.0049 3.215918,0.0049 -3.224213,0.0047 c -1.823134,0.0027 -3.224212,-0.0025 -3.224212,-0.01189 z m -0.536473,-0.03102 c 0.01135,-0.02096 0.05196,-0.07239 0.09023,-0.1143 l 0.06959,-0.0762 -0.0721,0.09525 c -0.08806,0.11633 -0.114964,0.145549 -0.08772,0.09525 z m 0.717448,-0.200025 c 0.01896,-0.02096 0.03877,-0.0381 0.044,-0.0381 0.0052,0 -0.006,0.01714 -0.02496,0.0381 -0.01896,0.02096 -0.03877,0.0381 -0.044,0.0381 -0.0052,0 0.006,-0.01714 0.02496,-0.0381 z m -0.51435,-0.05715 c 0.01896,-0.02096 0.03877,-0.0381 0.04401,-0.0381 0.0052,0 -0.006,0.01714 -0.02496,0.0381 -0.01896,0.02096 -0.03877,0.0381 -0.044,0.0381 -0.0052,0 0.006,-0.01714 0.02495,-0.0381 z m 0.6096,-0.05715 c 0.01896,-0.02096 0.03877,-0.0381 0.044,-0.0381 0.0052,0 -0.006,0.01714 -0.02495,0.0381 -0.01896,0.02096 -0.03877,0.0381 -0.044,0.0381 -0.0052,0 0.006,-0.01714 0.02495,-0.0381 z m -0.504825,-0.06668 c 0.02461,-0.02619 0.04903,-0.04762 0.05427,-0.04762 0.0052,0 -0.01061,0.02143 -0.03522,0.04762 -0.02461,0.02619 -0.04903,0.04763 -0.05427,0.04763 -0.0052,0 0.01061,-0.02143 0.03522,-0.04763 z m 0.600075,-0.04762 c 0.01896,-0.02096 0.03877,-0.0381 0.044,-0.0381 0.0052,0 -0.006,0.01714 -0.02496,0.0381 -0.01896,0.02096 -0.03877,0.0381 -0.044,0.0381 -0.0052,0 0.006,-0.01714 0.02496,-0.0381 z m -0.315467,-0.301845 c 0.129295,-0.159366 0.244169,-0.295373 0.255275,-0.302236 0.01111,-0.0069 -0.08559,0.117911 -0.214891,0.277277 -0.129296,0.159366 -0.24417,0.295373 -0.255275,0.302236 -0.01111,0.0069 0.0856,-0.117911 0.214891,-0.277277 z m 0.518227,0.05419 c 0.206494,-0.261521 0.511182,-0.62865 0.521731,-0.62865 0.01046,0 -0.516378,0.649766 -0.61012,0.752475 -0.03825,0.04191 0.0015,-0.01381 0.08839,-0.123825 z m -0.22181,-0.4191 c 0.01896,-0.02096 0.03877,-0.0381 0.044,-0.0381 0.0052,0 -0.006,0.01714 -0.02495,0.0381 -0.01896,0.02096 -0.03877,0.0381 -0.044,0.0381 -0.0052,0 0.006,-0.01714 0.02495,-0.0381 z m 0.130901,-0.157937 c 0.05104,-0.05982 0.09685,-0.108763 0.101787,-0.108763 0.01278,0 -0.145886,0.187603 -0.172501,0.203955 -0.01215,0.0075 0.01967,-0.03537 0.07071,-0.09519 z m 0.900338,-0.418325 c 0.366373,-0.453153 0.636242,-0.776288 0.648326,-0.776288 0.0053,0 -0.04541,0.06644 -0.112706,0.147638 -0.06729,0.0812 -0.219691,0.267652 -0.33866,0.414337 -0.335077,0.413142 -0.459305,0.561975 -0.469068,0.561975 -0.0049,0 0.117512,-0.156448 0.272108,-0.347662 z m -0.52601,-0.0407 c 0.147424,-0.182167 0.298423,-0.364332 0.335552,-0.404812 0.03713,-0.04048 -0.0079,0.0207 -0.100041,0.135949 -0.280516,0.350835 -0.486146,0.600075 -0.495078,0.600075 -0.0047,0 0.112142,-0.149045 0.259567,-0.331212 z m 0.437746,-0.535563 c 0.02461,-0.02619 0.04903,-0.04762 0.05427,-0.04762 0.0052,0 -0.01061,0.02143 -0.03522,0.04762 -0.02461,0.02619 -0.04903,0.04763 -0.05427,0.04763 -0.0052,0 0.01061,-0.02143 0.03522,-0.04763 z m 0.08572,-0.104775 c 0.01896,-0.02096 0.03877,-0.0381 0.044,-0.0381 0.0052,0 -0.006,0.01714 -0.02495,0.0381 -0.01896,0.02096 -0.03877,0.0381 -0.044,0.0381 -0.0052,0 0.006,-0.01714 0.02495,-0.0381 z m 0.09525,-0.1143 c 0.01896,-0.02096 0.03877,-0.0381 0.044,-0.0381 0.0052,0 -0.006,0.01714 -0.02496,0.0381 -0.01896,0.02096 -0.03877,0.0381 -0.044,0.0381 -0.0052,0 0.006,-0.01714 0.02496,-0.0381 z m 0.825888,-0.328612 c 0.146105,-0.180737 0.297281,-0.362902 0.335948,-0.404812 0.03867,-0.04191 -0.0051,0.0181 -0.09725,0.13335 -0.284251,0.355505 -0.486188,0.600074 -0.495475,0.600074 -0.0049,0 0.110668,-0.147875 0.256773,-0.328612 z m -0.749688,0.233362 c 0.01896,-0.02096 0.03877,-0.0381 0.044,-0.0381 0.0052,0 -0.006,0.01714 -0.02496,0.0381 -0.01896,0.02096 -0.03877,0.0381 -0.044,0.0381 -0.0052,0 0.006,-0.01714 0.02496,-0.0381 z m 0.20009,-0.245441 c 0.08773,-0.10719 0.168404,-0.200391 0.179281,-0.207114 0.01088,-0.0067 -0.05186,0.07539 -0.139421,0.182479 -0.08756,0.107086 -0.168235,0.200287 -0.179281,0.207113 -0.01105,0.0068 0.05169,-0.07529 0.139421,-0.182478 z m -2.537287,0.09908 c 0.01375,-0.0055 0.03018,-0.0048 0.03651,0.0015 0.0063,0.0063 -0.0049,0.01083 -0.025,0.01001 -0.02219,-9.15e-4 -0.02671,-0.0054 -0.01151,-0.01151 z m -0.674513,-0.0489 -0.03629,-0.04286 0.04286,0.03629 c 0.04028,0.0341 0.05153,0.04943 0.03629,0.04943 -0.0036,0 -0.0229,-0.01929 -0.04286,-0.04286 z m -0.08634,-0.08573 c -0.0237,-0.03021 -0.02302,-0.03089 0.0072,-0.0072 0.03173,0.02489 0.04182,0.04053 0.02614,0.04053 -0.004,0 -0.01896,-0.015 -0.03334,-0.03334 z m 1.14543,-0.05239 c 0.02461,-0.02619 0.04903,-0.04763 0.05427,-0.04763 0.0052,0 -0.01061,0.02143 -0.03522,0.04763 -0.02461,0.02619 -0.04903,0.04762 -0.05427,0.04762 -0.0052,0 0.01061,-0.02143 0.03522,-0.04762 z m 2.371725,-0.180975 c 0.01896,-0.02096 0.03877,-0.0381 0.044,-0.0381 0.0052,0 -0.006,0.01714 -0.02496,0.0381 -0.01896,0.02096 -0.03877,0.0381 -0.044,0.0381 -0.0052,0 0.006,-0.01714 0.02496,-0.0381 z m 0.09525,-0.1143 c 0.01896,-0.02096 0.03877,-0.0381 0.044,-0.0381 0.0052,0 -0.006,0.01714 -0.02495,0.0381 -0.01896,0.02096 -0.03877,0.0381 -0.044,0.0381 -0.0052,0 0.006,-0.01714 0.02495,-0.0381 z m -2.122571,-0.04921 c 9.14e-4,-0.02219 0.0054,-0.02671 0.01151,-0.01151 0.0055,0.01375 0.0048,0.03018 -0.0015,0.03651 -0.0063,0.0063 -0.01083,-0.0049 -0.01,-0.025 z m 2.198771,-0.04604 c 0.01896,-0.02096 0.03877,-0.0381 0.044,-0.0381 0.0052,0 -0.006,0.01714 -0.02495,0.0381 -0.01896,0.02096 -0.03877,0.0381 -0.044,0.0381 -0.0052,0 0.006,-0.01714 0.02495,-0.0381 z m -2.332121,-0.01111 c 9.14e-4,-0.02219 0.0054,-0.02671 0.01151,-0.01151 0.0055,0.01375 0.0048,0.03018 -0.0015,0.03651 -0.0063,0.0063 -0.01083,-0.0049 -0.01001,-0.025 z m 2.932196,-0.03651 c 0.02461,-0.02619 0.04903,-0.04763 0.05427,-0.04763 0.0052,0 -0.01061,0.02143 -0.03522,0.04763 -0.02461,0.02619 -0.04903,0.04762 -0.05427,0.04762 -0.0052,0 0.01061,-0.02143 0.03522,-0.04762 z m -4.357001,-0.0762 c 1.43e-4,-0.05239 0.0038,-0.07156 0.0082,-0.0426 0.0044,0.02896 0.0043,0.07182 -2.6e-4,0.09525 -0.0045,0.02343 -0.0081,-2.62e-4 -0.008,-0.05265 z m 1.579415,0 c 3.88e-4,-0.03143 0.0047,-0.04199 0.0095,-0.02345 0.0048,0.01853 0.0045,0.04425 -7.05e-4,0.05715 -0.0052,0.0129 -0.0092,-0.0023 -0.0088,-0.0337 z m 2.227048,0.0039 c -0.0241,-0.04013 -0.02369,-0.04053 0.0091,-0.0091 0.01888,0.01809 0.03023,0.03699 0.02522,0.042 -0.005,0.005 -0.02046,-0.0098 -0.03433,-0.03288 z m 1.138658,-0.0087 c -0.0237,-0.03021 -0.02302,-0.03089 0.0072,-0.0072 0.03173,0.02489 0.04182,0.04053 0.02614,0.04053 -0.004,0 -0.01896,-0.015 -0.03334,-0.03334 z m -0.618505,-0.04762 -0.03629,-0.04286 0.04286,0.03629 c 0.04028,0.0341 0.05154,0.04943 0.03629,0.04943 -0.0036,0 -0.0229,-0.01929 -0.04286,-0.04286 z m -0.600695,-0.04763 c -0.0237,-0.03021 -0.02302,-0.03089 0.0072,-0.0072 0.01834,0.01438 0.03334,0.02938 0.03334,0.03334 0,0.01568 -0.01564,0.0056 -0.04053,-0.02614 z m 1.143,0 c -0.0237,-0.03021 -0.02302,-0.03089 0.0072,-0.0072 0.01834,0.01438 0.03334,0.02938 0.03334,0.03334 0,0.01568 -0.01564,0.0056 -0.04053,-0.02614 z m -3.444116,-0.01587 c 9.14e-4,-0.02219 0.0054,-0.02671 0.01151,-0.01151 0.0055,0.01375 0.0048,0.03018 -0.0015,0.03651 -0.0063,0.0063 -0.01083,-0.0049 -0.01001,-0.025 z m 2.727874,-0.14605 c -0.07151,-0.08644 -0.19354,-0.238601 -0.271179,-0.338137 -0.07764,-0.09954 -0.153759,-0.195977 -0.169157,-0.214313 -0.0154,-0.01834 -0.02328,-0.03334 -0.01751,-0.03334 0.0058,0 0.144391,0.167163 0.30805,0.371475 0.163658,0.204311 0.293567,0.371475 0.288686,0.371475 -0.0049,0 -0.06738,-0.07072 -0.138892,-0.157163 z m -2.594524,0.0889 c 9.14e-4,-0.02219 0.0054,-0.02671 0.01151,-0.01151 0.0055,0.01375 0.0048,0.03018 -0.0015,0.03651 -0.0063,0.0063 -0.01083,-0.0049 -0.01,-0.025 z m 2.082661,-0.03175 -0.03629,-0.04286 0.04286,0.03629 c 0.04028,0.0341 0.05154,0.04943 0.03629,0.04943 -0.0036,0 -0.0229,-0.01929 -0.04286,-0.04286 z m 1.151905,0.0095 c -0.0237,-0.03021 -0.02302,-0.03089 0.0072,-0.0072 0.03173,0.02489 0.04182,0.04053 0.02614,0.04053 -0.004,0 -0.01896,-0.015 -0.03334,-0.03334 z m -1.34377,-0.246917 c -0.217501,-0.26965 -0.219464,-0.272195 -0.209907,-0.272195 0.0048,0 0.0798,0.08787 0.166621,0.195262 0.08682,0.107394 0.170559,0.210264 0.186077,0.2286 0.01552,0.01834 0.02331,0.03334 0.01732,0.03334 -0.006,0 -0.07804,-0.08325 -0.160115,-0.185005 z m 1.26757,0.151667 c -0.0237,-0.03021 -0.02302,-0.03089 0.0072,-0.0072 0.03173,0.02489 0.04182,0.04053 0.02614,0.04053 -0.004,0 -0.01896,-0.015 -0.03334,-0.03334 z m -0.0762,-0.09525 c -0.0237,-0.03021 -0.02302,-0.03089 0.0072,-0.0072 0.01834,0.01438 0.03334,0.02938 0.03334,0.03334 0,0.01568 -0.01564,0.0056 -0.04053,-0.02614 z m -4.53147,-0.01196 c 0,-0.004 0.015,-0.01896 0.03334,-0.03334 0.03021,-0.0237 0.03089,-0.02302 0.0072,0.0072 -0.02489,0.03173 -0.04053,0.04182 -0.04053,0.02614 z m 1.112615,-0.11187 -0.03629,-0.04286 0.04286,0.03629 c 0.02357,0.01996 0.04286,0.03925 0.04286,0.04286 0,0.01525 -0.01533,0.004 -0.04944,-0.03629 z m -1.16024,-0.05239 c 0.01896,-0.02096 0.03877,-0.0381 0.04401,-0.0381 0.0052,0 -0.006,0.01714 -0.02496,0.0381 -0.01896,0.02096 -0.03877,0.0381 -0.044,0.0381 -0.0052,0 0.006,-0.01714 0.02495,-0.0381 z m 0.06668,-0.06434 c 0,-0.004 0.015,-0.01896 0.03334,-0.03334 0.03021,-0.0237 0.03089,-0.02302 0.0072,0.0072 -0.02489,0.03173 -0.04053,0.04182 -0.04053,0.02615 z m 3.055715,-0.14997 -0.03629,-0.04286 0.04286,0.03629 c 0.04028,0.0341 0.05154,0.04943 0.03629,0.04943 -0.0036,0 -0.0229,-0.01929 -0.04286,-0.04286 z m -0.0762,-0.09525 -0.03629,-0.04286 0.04286,0.03629 c 0.02358,0.01996 0.04286,0.03925 0.04286,0.04286 0,0.01525 -0.01533,0.004 -0.04944,-0.03629 z m -2.487787,0.0108 c 0.01375,-0.0055 0.03018,-0.0048 0.03651,0.0015 0.0063,0.0063 -0.0049,0.01083 -0.025,0.01001 -0.02219,-9.14e-4 -0.02671,-0.0054 -0.01151,-0.01151 z m 0.17145,0 c 0.01375,-0.0055 0.03018,-0.0048 0.03651,0.0015 0.0063,0.0063 -0.0049,0.01083 -0.025,0.01001 -0.02219,-9.14e-4 -0.02671,-0.0054 -0.01151,-0.01151 z m 2.838834,-0.05842 c -0.08249,-0.08926 -0.917905,-1.135097 -0.895801,-1.121436 0.01147,0.0071 0.211167,0.250528 0.443761,0.540971 0.232594,0.290443 0.444635,0.551652 0.471202,0.580465 0.02657,0.02881 0.04402,0.05239 0.03878,0.05239 -0.0052,0 -0.03131,-0.02357 -0.05794,-0.05239 z m -0.608842,-0.05715 c -0.0237,-0.03021 -0.02302,-0.03089 0.0072,-0.0072 0.01834,0.01438 0.03334,0.02938 0.03334,0.03334 0,0.01568 -0.01564,0.0056 -0.04053,-0.02615 z m 1.143,0 c -0.0237,-0.03021 -0.02302,-0.03089 0.0072,-0.0072 0.01834,0.01438 0.03334,0.02938 0.03334,0.03334 0,0.01568 -0.01564,0.0056 -0.04053,-0.02615 z m -1.228105,-0.104775 -0.03629,-0.04286 0.04286,0.03629 c 0.04028,0.0341 0.05154,0.04943 0.03629,0.04943 -0.0036,0 -0.0229,-0.01929 -0.04286,-0.04286 z m -0.0673,-0.08572 c -0.0237,-0.03021 -0.02302,-0.03089 0.0072,-0.0072 0.01834,0.01438 0.03334,0.02938 0.03334,0.03334 0,0.01568 -0.01564,0.0056 -0.04053,-0.02614 z M 93.248805,33.33134 c -0.217727,-0.266226 -0.266334,-0.328575 -0.256156,-0.328575 0.0055,0 0.09645,0.107156 0.202059,0.238125 0.105609,0.130968 0.188159,0.238125 0.183443,0.238125 -0.0047,0 -0.06292,-0.06645 -0.129346,-0.147675 z m -0.313216,-0.390488 c -0.08344,-0.09625 -0.108229,-0.128587 -0.09855,-0.128587 0.0056,0 0.04179,0.03858 0.08043,0.08573 0.07156,0.08732 0.08573,0.120837 0.01813,0.04286 z m -0.198081,-0.242887 c -0.04386,-0.05239 -0.07546,-0.09525 -0.07022,-0.09525 0.0052,0 0.04541,0.04286 0.08927,0.09525 0.04386,0.05239 0.07546,0.09525 0.07022,0.09525 -0.0052,0 -0.04541,-0.04286 -0.08927,-0.09525 z m 1.17867,0.04286 c -0.0237,-0.03021 -0.02302,-0.03089 0.0072,-0.0072 0.03173,0.02489 0.04182,0.04053 0.02614,0.04053 -0.004,0 -0.01896,-0.015 -0.03334,-0.03334 z m -0.0762,-0.09525 c -0.0237,-0.03021 -0.02302,-0.03089 0.0072,-0.0072 0.03173,0.02489 0.04182,0.04053 0.02614,0.04053 -0.004,0 -0.01896,-0.015 -0.03334,-0.03334 z m -0.637689,-0.06668 c -0.08344,-0.09625 -0.108229,-0.128587 -0.09855,-0.128587 0.0056,0 0.04179,0.03858 0.08043,0.08572 0.07156,0.08732 0.08573,0.120837 0.01813,0.04286 z m -0.59055,-0.0381 c -0.08344,-0.09625 -0.108229,-0.128587 -0.09855,-0.128587 0.0056,0 0.04179,0.03858 0.08043,0.08572 0.07155,0.08732 0.08573,0.120837 0.01812,0.04286 z m 1.075839,-0.08572 c -0.0237,-0.03021 -0.02302,-0.03089 0.0072,-0.0072 0.01834,0.01438 0.03334,0.02938 0.03334,0.03334 0,0.01568 -0.01564,0.0056 -0.04053,-0.02614 z M 92.925964,32.236 c -0.217769,-0.264063 -0.365142,-0.452437 -0.353959,-0.452437 0.0051,0 0.114329,0.13073 0.242788,0.290512 0.128459,0.159782 0.246388,0.305514 0.262066,0.32385 0.01568,0.01834 0.02437,0.03334 0.01932,0.03334 -0.0051,0 -0.08165,-0.08787 -0.170215,-0.195263 z m -0.658248,-0.122918 c -0.302423,-0.375567 -0.296244,-0.367619 -0.285762,-0.367619 0.0051,0 0.110702,0.126036 0.234746,0.280081 0.302422,0.375567 0.296244,0.367619 0.285761,0.367619 -0.0051,0 -0.110701,-0.126037 -0.234745,-0.280081 z m 0.248907,-0.391432 -0.03629,-0.04286 0.04286,0.03629 c 0.04028,0.0341 0.05154,0.04943 0.03629,0.04943 -0.0036,0 -0.0229,-0.01929 -0.04286,-0.04286 z m -0.599707,-0.04763 -0.04618,-0.05239 0.05239,0.04618 c 0.04896,0.04317 0.06112,0.05859 0.04618,0.05859 -0.0034,0 -0.02699,-0.02358 -0.05239,-0.05239 z m 0.504457,-0.06668 -0.03629,-0.04286 0.04286,0.03629 c 0.04028,0.0341 0.05154,0.04943 0.03629,0.04943 -0.0036,0 -0.0229,-0.01929 -0.04286,-0.04286 z m -0.600695,-0.04763 c -0.0237,-0.03021 -0.02302,-0.03089 0.0072,-0.0072 0.01834,0.01438 0.03334,0.02938 0.03334,0.03334 0,0.01568 -0.01564,0.0056 -0.04053,-0.02614 z m 0.524495,-0.04763 -0.03629,-0.04286 0.04286,0.03629 c 0.04028,0.0341 0.05154,0.04943 0.03629,0.04943 -0.0036,0 -0.0229,-0.01929 -0.04286,-0.04286 z m -0.600695,-0.04763 c -0.0237,-0.03021 -0.02302,-0.03089 0.0072,-0.0072 0.01834,0.01438 0.03334,0.02938 0.03334,0.03334 0,0.01568 -0.01564,0.0056 -0.04053,-0.02614 z m 0.480454,-0.09789 c -0.04289,-0.05122 -0.07797,-0.09837 -0.07797,-0.104775 0,-0.0064 0.135017,-0.0097 0.300037,-0.0074 l 0.300038,0.0042 -0.280988,0.0058 c -0.154543,0.0032 -0.280987,0.01058 -0.280987,0.01639 0,0.0058 0.03104,0.04845 0.06897,0.09474 0.03793,0.04629 0.06445,0.08417 0.05892,0.08417 -0.0055,0 -0.04514,-0.04191 -0.08802,-0.09313 z m -0.573274,-0.02117 c -0.03319,-0.04191 -0.05607,-0.0762 -0.05083,-0.0762 0.0052,0 0.03668,0.03429 0.06988,0.0762 0.03319,0.04191 0.05606,0.0762 0.05083,0.0762 -0.0052,0 -0.03668,-0.03429 -0.06988,-0.0762 z"
       id="path40935" /><path
       style="fill:#32549f"
       d="m 93.690008,36.973969 c 0,-0.0093 0.145717,-0.190279 0.697487,-0.866055 l 0.194428,-0.238125 2.582993,0.0049 2.582992,0.0049 v 0.552314 0.552314 h -3.02895 c -1.665923,0 -3.02895,-0.0046 -3.02895,-0.01025 z"
       id="path40934" /><path
       style="fill:#880182"
       d="m 92.850331,37.989102 c 0.06271,-0.07596 0.273601,-0.333137 0.468657,-0.5715 l 0.354647,-0.433388 h 3.038304 3.038303 l -0.01219,0.09049 c -0.06707,0.497886 -0.421361,0.903442 -0.89426,1.023651 -0.09905,0.02518 -0.495982,0.02886 -3.110506,0.02886 H 92.73632 Z m -1.770173,-2.454554 c -0.4204,-0.0821 -0.734534,-0.531667 -0.67248,-0.962405 0.100973,-0.700892 0.952927,-0.98718 1.452136,-0.487971 0.598286,0.598287 0.05285,1.612959 -0.779656,1.450376 z m 0.463477,-0.184751 c 0.688677,-0.308249 0.506469,-1.330548 -0.24444,-1.371459 -0.73258,-0.03991 -1.046221,0.852896 -0.457395,1.302015 0.164178,0.125225 0.502436,0.158694 0.701835,0.06944 z"
       id="path40933" /><path
       style="fill:#fd0005"
       d="m 93.574753,32.301358 c -0.196229,-0.244987 -0.787777,-0.986264 -0.804935,-1.008673 -0.01492,-0.01949 0.568147,-0.02313 3.017836,-0.01887 l 3.036329,0.0053 0.126771,0.04906 c 0.445045,0.172233 0.705784,0.507577 0.787344,1.012626 l 0.01154,0.07144 -3.044101,-0.0013 -3.0441,-0.0013 z"
       id="path40932" /><path
       style="fill:#098e3b"
       d="m 94.604408,35.860352 c 0,-0.01043 0.206862,-0.271891 0.459694,-0.581025 l 0.459693,-0.562062 h 2.112056 2.112057 v 0.581025 0.581024 h -2.57175 c -1.693894,0 -2.57175,-0.0065 -2.57175,-0.01896 z"
       id="path40931" /><path
       style="fill:#2e353c"
       d="m 92.236009,38.036727 c 0.0399,-0.04977 0.22384,-0.274796 0.408748,-0.500063 0.409671,-0.499085 0.758873,-0.926051 1.19969,-1.46685 0.18362,-0.225266 0.506077,-0.620757 0.716572,-0.87887 l 0.382718,-0.469295 -0.403027,-0.502321 c -0.221665,-0.276277 -0.582646,-0.725176 -0.802181,-0.997555 -0.219534,-0.272378 -0.571524,-0.709546 -0.7822,-0.971483 -0.210675,-0.261938 -0.470397,-0.584779 -0.577158,-0.717425 -0.106762,-0.132647 -0.194113,-0.246232 -0.194113,-0.252413 0,-0.0062 0.127218,-0.01124 0.282707,-0.01124 h 0.282708 l 0.04591,0.06433 c 0.04269,0.05982 0.467946,0.590907 1.151495,1.438051 0.157542,0.195247 0.563841,0.702181 0.902887,1.12652 0.339046,0.424338 0.627568,0.784517 0.641159,0.800396 0.02106,0.0246 -0.01246,0.07417 -0.226613,0.33511 -0.138228,0.168431 -0.491353,0.600737 -0.784723,0.96068 -0.634065,0.777951 -1.470471,1.801431 -1.630187,1.994801 l -0.114075,0.138112 h -0.286432 -0.286432 z"
       id="path40930" /></g></svg>
